<?xml version="1.0" encoding="utf-8"?>
<!-- Svg Vector Icons : http://www.onlinewebfonts.com/icon -->
<!DOCTYPE svg PUBLIC "-//W3C//DTD SVG 1.1//EN" "http://www.w3.org/Graphics/SVG/1.1/DTD/svg11.dtd">
<svg version="1.1" xmlns="http://www.w3.org/2000/svg" xmlns:xlink="http://www.w3.org/1999/xlink" x="0px" y="0px" viewBox="0 0 1000 1000" enable-background="new 0 0 1000 1000" xml:space="preserve">
<metadata> Svg Vector Icons : http://www.onlinewebfonts.com/icon </metadata>
<g><g transform="translate(0.000000,511.000000) scale(0.100000,-0.100000)"><path d="M4537.8,5006.6C3315.1,4858.4,2344.9,4400,1525.2,3582.6C805.1,2867.1,342,1968.6,159,931.3c-78.7-433-78.7-1206.4,0-1639.4c90.3-509.4,222.3-912.3,446.9-1368.5C1300.6-3475.2,2615.8-4457,4167.3-4730.3c389-69.5,1032.7-85.7,1431-34.7c993.4,127.4,1857.1,509.4,2611.9,1155.4c870.7,745.6,1449.5,1785.3,1646.4,2947.7c57.9,351.9,57.9,1190.2,0,1539.8C9597.2,2429.4,8671,3723.8,7304.8,4453.2c-449.2,238.5-988.8,421.4-1516.7,511.8C5577.4,4999.7,4723,5029.8,4537.8,5006.6z M5628.4,4682.5C7689.2,4395.3,9280,2804.5,9574.1,732.1c44-305.6,44-935.5,0-1241.1c-294.1-2063.1-1871-3651.6-3927.2-3950.3c-312.6-46.3-970.2-48.6-1282.8-2.3C2456.1-4190.7,911.6-2766.7,499.4-905C406.8-478.9,386-231.1,399.9,269c9.3,365.9,25.5,514.1,74.1,745.6c407.5,1947.4,1931.2,3383,3887.8,3670.2C4660.5,4726.4,5313.5,4726.4,5628.4,4682.5z"/><path d="M6957.5,1477.7c-534.9-111.1-2023.8-416.8-3311.2-680.8C1492.8,354.7,1302.9,313,1256.6,259.8c-64.8-69.5-67.2-104.2-13.9-169c32.4-39.4,199.1-92.6,780.3-245.5c407.5-108.8,747.9-203.8,757.2-213c6.9-11.6,67.2-319.5,132-687.7c122.7-694.7,143.6-754.9,247.8-754.9c27.8,0,347.3,143.6,708.6,321.9l657.6,319.5l335.8-310.3c185.2-169,361.2-314.9,391.3-324.2c32.4-6.9,78.7,0,108.8,18.5c76.4,46.3,2764.8,3234.8,2767.1,3281.1c9.3,108.8-57.9,192.2-150.5,187.6C7953.2,1683.8,7492.4,1591.2,6957.5,1477.7z M6864.9,1123.5c-25.5-18.5-671.5-352-1435.6-741C4665.1-8.9,4007.5-346.9,3970.4-372.4c-39.4-23.2-210.7-236.2-382.1-472.4c-171.4-236.2-317.2-430.7-324.2-433c-6.9,0-55.6,247.8-108.8,548.8c-71.8,400.6-108.8,560.4-138.9,590.5c-25.5,23.2-231.6,90.3-516.4,166.7c-261.7,69.5-470,127.4-463.1,129.7c50.9,13.9,4811.7,991,4839.5,993.4C6899.6,1153.5,6895,1144.3,6864.9,1123.5z M6332.3-205.7c-569.6-671.5-1046.6-1224.9-1055.9-1229.5c-23.2-9.3-998,877.6-981.8,893.8c20.8,20.8,3056.5,1572.3,3063.5,1565.3C7362.7,1021.6,6901.9,468.2,6332.3-205.7z M4167.3-849.4c55.6-55.6,97.3-106.5,90.3-113.5c-20.8-18.5-581.2-294.1-588.1-287.1c-9.3,11.6,361.2,504.8,379.7,504.8C4058.4-745.2,4111.7-791.5,4167.3-849.4z"/></g></g>
</svg>